<?xml version="1.0" encoding="utf-8"?>
<!-- Generator: Adobe Illustrator 22.0.1, SVG Export Plug-In . SVG Version: 6.00 Build 0)  -->
<svg version="1.1" id="Layer_1" xmlns="http://www.w3.org/2000/svg" xmlns:xlink="http://www.w3.org/1999/xlink" x="0px" y="0px"
	 viewBox="0 0 287.8 100.7" style="enable-background:new 0 0 287.8 100.7;" xml:space="preserve">
<style type="text/css">
	.st0{opacity:0.6;clip-path:url(#SVGID_2_);}
	.st1{fill:none;}
	.st2{opacity:0.6;}
</style>
<g id="CUW_Stacked_FlushLeft_-_White_1_">
	<g>
		<g>
			<g>
				<path d="M107.3,44.6c-2.5,1.7-5.5,2.2-8.5,2.2c-8.4,0-14.6-5.1-14.6-14.5c0-9.1,6.9-13.6,14.7-13.6c3,0,5.5,0.3,9,1.9l0.2,0.4
					c-0.4,1.4-0.7,4.3-0.8,6h-1.4l-0.2-3.4c-1.8-2-4.1-2.7-6.6-2.7c-6.1,0-9.3,4.7-9.3,10.9c0,7.2,3.9,12.5,10.9,12.5
					c2.2,0,5.2-0.8,7-2l0.4,0.5L107.3,44.6z"/>
				<path d="M132.9,34.4c0,8-4.8,12.3-12,12.3c-7.1,0-11.3-4.1-11.3-11.9c0-8,4.8-12.3,12-12.3C128.6,22.5,132.9,26.7,132.9,34.4z
					 M114.3,34.2c0,5.6,2.2,10.5,6.6,10.5c5.9,0,7.3-4.7,7.3-9.8c0-5.6-2.2-10.6-6.6-10.6C115.7,24.4,114.3,29.1,114.3,34.2z"/>
				<path d="M137.2,27.7c0-1.4,0-2.3-0.2-2.7c-0.2-0.3-0.5-0.5-1.3-0.6l-1.2-0.1V23c1.3,0,2.5,0.1,3.8,0.1c0.9,0,1.8-0.1,2.6-0.1
					c1.1,1.5,2.1,3.1,3.2,4.5l9.8,12.3V27.7c0-1.4,0-2.3-0.2-2.7c-0.2-0.3-0.5-0.5-1.3-0.6l-1.2-0.1V23c1.2,0,2.4,0.1,3.6,0.1
					c1.2,0,2.4-0.1,3.6-0.1v1.3l-1.2,0.1c-0.8,0.1-1.1,0.2-1.3,0.6s-0.2,1.3-0.2,2.7v15.4c0,1.2,0.1,2.4,0.1,3.4l-0.2,0.1l-2.6-0.4
					c-1.3-1.6-2.6-3.2-3.8-4.7L139,28.3h0v13.2c0,1.4,0,2.3,0.2,2.7c0.2,0.3,0.5,0.5,1.3,0.6l1.2,0.1v1.3c-1.2,0-2.4-0.1-3.6-0.1
					c-1.2,0-2.4,0.1-3.6,0.1v-1.3l1.2-0.1c0.8-0.1,1.1-0.2,1.3-0.6c0.2-0.4,0.2-1.3,0.2-2.7L137.2,27.7L137.2,27.7z"/>
				<path d="M179.2,44.8c-2.2,1.4-4.7,1.9-7.3,1.9c-7.2,0-12.5-4.3-12.5-12.4c0-7.8,5.9-11.7,12.6-11.7c2.6,0,4.7,0.2,7.7,1.6
					l0.2,0.4c-0.3,1.2-0.6,3.7-0.7,5.2H178l-0.2-2.9c-1.5-1.7-3.5-2.3-5.7-2.3c-5.2,0-8,4-8,9.3c0,6.2,3.3,10.7,9.3,10.7
					c1.9,0,4.4-0.7,6-1.7l0.4,0.4L179.2,44.8z"/>
				<path d="M204.7,34.4c0,8-4.8,12.3-12,12.3c-7.1,0-11.3-4.1-11.3-11.9c0-8,4.8-12.3,12-12.3C200.4,22.5,204.7,26.7,204.7,34.4z
					 M186.1,34.2c0,5.6,2.2,10.5,6.6,10.5c5.9,0,7.3-4.7,7.3-9.8c0-5.6-2.2-10.6-6.6-10.6C187.5,24.4,186.1,29.1,186.1,34.2z"/>
				<path d="M208.5,27.7c0-1.4,0-2.3-0.2-2.7c-0.2-0.3-0.5-0.5-1.3-0.6l-1.2-0.1V23c2.1,0,3.7,0.1,5.3,0.1c2.1,0,4.3-0.1,6.4-0.1
					h0.3c3.1,0,5.9,1.1,5.9,5c0,3-2.1,5-4.7,6l5.7,9.3c0.2,0.4,0.6,0.7,0.9,1c0.3,0.2,0.7,0.3,1.3,0.5v1.4c-1,0-2-0.1-3.1-0.1
					c-0.9,0-1.9,0.1-2.8,0.1l-7-11.8l0.2-0.6c0.2,0,0.3,0,0.5,0c2.6,0,4.5-1.9,4.5-4.9c0-2.8-1.8-4.3-4.3-4.3c-0.7,0-1.5,0-2,0.3
					v16.5c0,1.4,0,2.3,0.2,2.7c0.1,0.3,0.5,0.4,1.3,0.5l1.2,0.1v1.4c-1.3,0-3-0.1-4.9-0.1s-3.6,0.1-4.9,0.1v-1.4l1.2-0.1
					c0.8-0.1,1.2-0.2,1.3-0.5c0.2-0.4,0.2-1.3,0.2-2.7V27.7z"/>
				<path d="M230.2,27.7c0-1.4,0-2.3-0.2-2.7c-0.2-0.3-0.5-0.5-1.3-0.6l-1.2-0.1V23c2.1,0,3.7,0.1,4.9,0.1c2,0,5.3-0.1,8.1-0.1
					c6.8,0,10.7,3,10.7,10.6c0,8.1-6.2,12.6-12.8,12.6h-0.3c-1.6,0-3.1-0.1-4.7-0.1c-1.6,0-3.1,0.1-4.8,0.1v-0.8l1-0.6
					c0.5-0.3,0.6-0.9,0.6-1.9V27.7z M234.6,44.2c0.9,0.2,1.8,0.2,2.7,0.2c6.3,0,9.1-3.3,9.1-10.1c0-6.7-2.7-9.5-9.9-9.5
					c-0.6,0-1.3,0-1.9,0.1L234.6,44.2L234.6,44.2z"/>
				<path d="M260.1,41.5c0,1.4,0,2.3,0.2,2.7c0.1,0.3,0.5,0.4,1.3,0.5l1.2,0.1v1.4c-1.3,0-3-0.1-4.9-0.1s-3.6,0.1-4.9,0.1v-1.4
					l1.2-0.1c0.8-0.1,1.2-0.2,1.3-0.5c0.2-0.4,0.2-1.3,0.2-2.7V27.7c0-1.4,0-2.3-0.2-2.7c-0.1-0.3-0.5-0.4-1.3-0.5l-1.2-0.1V23
					c1.3,0,3,0.1,4.9,0.1s3.6-0.1,4.9-0.1v1.4l-1.2,0.1c-0.8,0.1-1.2,0.2-1.3,0.5c-0.2,0.4-0.2,1.3-0.2,2.7V41.5z"/>
				<path d="M270.4,39.1l-1.3,3.8c-0.1,0.3-0.2,0.6-0.2,0.8c0,0.7,0.5,1.1,0.9,1.1l1.6,0.1v1.3c-1.5,0-2.6-0.1-3.6-0.1
					c-0.9,0-2,0.1-3.6,0.1v-1.3l0.9-0.1c0.8-0.1,1.4-1.1,1.8-2l5.7-14.8l1.8-5.1h2.2l8.2,20.5c0.3,0.8,0.8,1.4,1.7,1.5l0.8,0.1v1.3
					c-2.1,0-3.7-0.1-4.9-0.1c-1.2,0-2.8,0.1-4.9,0.1V45l1.7-0.1c0.3,0,0.6-0.4,0.6-1c0-0.2-0.1-0.5-0.2-0.9l-1.4-3.9
					C278.2,39.1,270.4,39.1,270.4,39.1z M271.2,37.2h6.4l-3.3-8.6L271.2,37.2z"/>
				<path d="M86.7,58.3c0-1.7,0-2.7-0.3-3.2c-0.2-0.4-0.6-0.6-1.5-0.7l-1.4-0.1v-1.5c1.5,0,3.5,0.1,5.7,0.1s4.2-0.1,5.7-0.1v1.5
					l-1.4,0.1c-1,0.1-1.3,0.3-1.5,0.7c-0.2,0.5-0.3,1.5-0.3,3.2v9.8c0,5.6,0.3,9.1,6.6,9.1c6.1,0,6.8-3.6,6.8-9.4v-9.5
					c0-1.7,0-2.7-0.3-3.2c-0.2-0.4-0.6-0.6-1.5-0.7l-1.4-0.1v-1.5c1.4,0,2.8,0.1,4.2,0.1c1.4,0,2.8-0.1,4.2-0.1v1.5l-1.4,0.1
					c-1,0.1-1.3,0.3-1.5,0.7c-0.2,0.5-0.3,1.5-0.3,3.2v11.5c0,7.2-3.6,10.6-10.2,10.6c-7,0-10.5-3.2-10.5-7.7V58.3H86.7z"/>
				<path d="M115,61.4c0-1.4,0-2.3-0.2-2.7c-0.2-0.3-0.5-0.5-1.3-0.6l-1.2-0.1v-1.3c1.3,0,2.5,0.1,3.8,0.1c0.9,0,1.8-0.1,2.6-0.1
					c1.1,1.5,2.1,3.1,3.2,4.5l9.8,12.3V61.4c0-1.4,0-2.3-0.2-2.7c-0.2-0.3-0.5-0.5-1.3-0.6L129,58v-1.3c1.2,0,2.4,0.1,3.6,0.1
					c1.2,0,2.4-0.1,3.6-0.1V58l-1.2,0.1c-0.8,0.1-1.1,0.2-1.3,0.6c-0.2,0.4-0.2,1.3-0.2,2.7v15.4c0,1.2,0.1,2.4,0.1,3.4l-0.2,0.1
					l-2.6-0.4c-1.3-1.6-2.6-3.2-3.8-4.7L116.9,62h-0.1v13.2c0,1.4,0,2.3,0.2,2.7c0.2,0.3,0.5,0.5,1.3,0.6l1.2,0.1v1.3
					c-1.2,0-2.4-0.1-3.6-0.1s-2.4,0.1-3.6,0.1v-1.3l1.2-0.1c0.8-0.1,1.1-0.2,1.3-0.6c0.2-0.4,0.2-1.3,0.2-2.7V61.4z"/>
				<path d="M145,75.2c0,1.4,0,2.3,0.2,2.7c0.1,0.3,0.5,0.4,1.3,0.5l1.2,0.1v1.4c-1.3,0-3-0.1-4.9-0.1s-3.6,0.1-4.9,0.1v-1.4
					l1.2-0.1c0.8-0.1,1.2-0.2,1.3-0.5c0.2-0.4,0.2-1.3,0.2-2.7V61.4c0-1.4,0-2.3-0.2-2.7c-0.1-0.3-0.5-0.4-1.3-0.5l-1.2-0.1v-1.4
					c1.3,0,3,0.1,4.9,0.1s3.6-0.1,4.9-0.1v1.4l-1.2,0.1c-0.8,0.1-1.2,0.2-1.3,0.5c-0.2,0.4-0.2,1.3-0.2,2.7V75.2z"/>
				<path d="M162,74.3l4.5-12c0.5-1.4,1-2.7,1-3.3s-0.5-0.9-1.2-0.9l-1.5-0.1v-1.3c1.5,0,2.7,0.1,3.7,0.1c0.9,0,2.1-0.1,3.6-0.1V58
					l-1,0.1c-0.7,0.1-1.1,0.6-1.5,1.6L163,76.6c-0.4,1.1-0.8,2.2-1.2,3.4h-2.4L152,60.5c-0.4-0.9-0.9-2.3-2-2.4l-1.3-0.1v-1.3
					c2.1,0,3.7,0.1,4.9,0.1s2.8-0.1,5.2-0.1V58l-1.6,0.1c-0.5,0-0.8,0.3-0.8,0.6c0,0.7,0.4,1.7,0.7,2.4L162,74.3z"/>
				<path d="M181,66.9c0.7,0.1,1.4,0.1,2.1,0.1h2.1c1.1,0,1.7-0.1,1.8-0.7l0.2-1.9h1.3c0,1.2-0.1,2.4-0.1,3.6s0.1,2.4,0.1,3.7h-1.3
					L187,70c-0.1-0.9-0.7-1.3-1.8-1.3h-2.1c-0.7,0-1.4,0-2.1,0.1v9c1.3,0.1,2.7,0.1,4,0.1c1.5,0,3.8-0.3,3.8-0.6l0.7-3.2h1.2
					l-0.3,5.4l-0.2,0.3c-1.3,0.1-3.1,0.1-4.8,0.1c-1.1,0-2.1,0-2.9,0c-1.3,0-2.6-0.1-3.9-0.1c-1.3,0-2.6,0.1-3.8,0.1v-0.8l1-0.6
					c0.5-0.3,0.6-0.9,0.6-1.9V61.4c0-1.4,0-2.3-0.2-2.7c-0.2-0.3-0.5-0.5-1.3-0.6l-1.2-0.1v-1.3c1,0,2,0,2.8,0.1c0.8,0,1.5,0,2.1,0
					c3,0,5.1-0.1,6.9-0.1c0.6,0,1.1,0,1.7,0c1,0,2,0,2.9,0.1l0.2,0.2l-0.4,4.8h-1.1l-0.3-2.5c-0.1-0.5-2.2-0.6-3.6-0.6
					c-1.4,0-2.7,0-4,0.1v8.1H181z"/>
				<path d="M195.7,61.4c0-1.4,0-2.3-0.2-2.7c-0.2-0.3-0.5-0.5-1.3-0.6L193,58v-1.3c2.1,0,3.7,0.1,5.3,0.1c2.1,0,4.3-0.1,6.4-0.1
					h0.3c3.1,0,5.9,1.1,5.9,5c0,3-2.1,5-4.7,6l5.7,9.3c0.2,0.4,0.6,0.7,0.9,1c0.3,0.2,0.7,0.3,1.3,0.5v1.4c-1,0-2-0.1-3.1-0.1
					c-0.9,0-1.9,0.1-2.8,0.1l-7.1-11.8l0.2-0.6c0.2,0,0.3,0,0.5,0c2.6,0,4.5-1.9,4.5-4.9c0-2.8-1.8-4.3-4.3-4.3c-0.7,0-1.5,0-2,0.3
					v16.5c0,1.4,0,2.3,0.2,2.7c0.1,0.3,0.5,0.4,1.3,0.5l1.2,0.1v1.4c-1.3,0-3-0.1-4.9-0.1s-3.6,0.1-4.9,0.1v-1.4l1.2-0.1
					c0.8-0.1,1.2-0.2,1.3-0.5c0.2-0.4,0.2-1.3,0.2-2.7V61.4H195.7z"/>
				<path d="M217.3,73l0.2,3c0.9,1.6,3.3,2.6,5,2.6c2.7,0,4.9-1.5,4.9-4.5c0-1.5-0.8-2.6-2.6-3.2l-4.4-1.4c-2.6-0.8-4.6-2.8-4.6-5.8
					c0-5.4,3.8-7.5,8.3-7.5c2,0,4,0.4,5.9,1.2l0.2,0.4c-0.3,1.1-0.4,3-0.4,4.8h-1.3l-0.2-2.8c-0.9-1.2-2.7-1.9-4.2-1.9
					c-2.9,0-4.3,1.8-4.3,4.1c0,1.5,1,2.6,3.3,3.3l3.6,1c2.9,0.8,4.8,2.8,4.8,5.8c0,5.8-4.4,8.2-9.2,8.2c-2.3,0-4.6-0.5-6.6-1.6
					c0.4-2,0.5-3.9,0.5-5.9h1.1V73z"/>
				<path d="M241.4,75.2c0,1.4,0,2.3,0.2,2.7c0.1,0.3,0.5,0.4,1.3,0.5l1.2,0.1v1.4c-1.3,0-3-0.1-4.9-0.1s-3.6,0.1-4.9,0.1v-1.4
					l1.2-0.1c0.8-0.1,1.2-0.2,1.3-0.5c0.2-0.4,0.2-1.3,0.2-2.7V61.4c0-1.4,0-2.3-0.2-2.7c-0.1-0.3-0.5-0.4-1.3-0.5l-1.2-0.1v-1.4
					c1.3,0,3,0.1,4.9,0.1s3.6-0.1,4.9-0.1v1.4l-1.2,0.1c-0.8,0.1-1.2,0.2-1.3,0.5c-0.2,0.4-0.2,1.3-0.2,2.7V75.2z"/>
				<path d="M258,75.2c0,1.4,0,2.3,0.2,2.7c0.1,0.3,0.5,0.4,1.3,0.5l1.2,0.1v1.4c-1.3,0-3-0.1-4.9-0.1s-3.6,0.1-4.9,0.1v-1.4
					l1.2-0.1c0.8-0.1,1.2-0.2,1.3-0.5c0.2-0.4,0.2-1.3,0.2-2.7V58.8h-3.7c-0.9,0-1.7,0-2,0.3c-0.1,0.2-0.3,0.4-0.3,0.8l-0.2,2.3
					h-1.3c-0.1-2.2-0.2-3.8-0.4-5.4l0.2-0.2c3.3,0,6.6,0.1,9.8,0.1s6.5-0.1,9.8-0.1l0.2,0.2c-0.3,1.6-0.3,3.2-0.4,5.4H264l-0.2-2.3
					c0-0.4-0.2-0.6-0.3-0.8c-0.2-0.3-1.1-0.3-2-0.3H258V75.2z"/>
				<path d="M285.4,56.8h2.4v0.6l-5.5,8.8c-0.7,1-1.2,2.2-1.7,3.4v5.5c0,1.4,0,2.3,0.2,2.7c0.1,0.3,0.5,0.4,1.3,0.5l1.2,0.1v1.4
					c-1.3,0-3-0.1-4.9-0.1s-3.6,0.1-4.9,0.1v-1.4l1.2-0.1c0.8-0.1,1.2-0.2,1.3-0.5c0.2-0.4,0.2-1.3,0.2-2.7v-4.7
					c-0.6-1.5-1-2.2-1.4-2.9l-3.2-5.5c-0.4-0.7-1.1-1.6-1.6-2.3c-0.7-0.8-1.4-1.1-2.5-1.1v-1.3l5-1.2c1.7,1,2.7,2.8,3.6,4.6l3.4,6.9
					L285.4,56.8z"/>
			</g>
			<g>
				<g>
					<path d="M88.5,88.6h2.4l1.4,8.4l0,0l1.8-8.4h2.7l1.7,8.4l0,0l1.4-8.4h2.3l-2.5,11.9h-2.6l-1.7-8.7l0,0l-1.9,8.7H91L88.5,88.6z"
						/>
					<path d="M117.9,100.5V88.6h2.3v11.9H117.9z"/>
					<path d="M139.9,100.7c-2.9,0-3.4-1.8-3.3-3.9h2.3c0,1.1,0,2.1,1.3,2.1c0.8,0,1.2-0.5,1.2-1.4c0-2.1-4.7-2.3-4.7-5.8
						c0-1.9,0.8-3.4,3.7-3.4c2.3,0,3.4,1.1,3.2,3.6h-2.3c0-0.9-0.1-1.8-1.1-1.8c-0.8,0-1.2,0.4-1.2,1.3c0,2.3,4.7,2.1,4.7,5.8
						C143.7,100.3,141.6,100.7,139.9,100.7z"/>
					<path d="M160,94.5c0-3.2,0-6.2,3.8-6.2c2.4,0,3.3,1.4,3.2,4h-2.3c0-1.6-0.3-2.2-1-2.2c-1.3,0-1.5,1.3-1.5,4.4s0.2,4.4,1.5,4.4
						c1.1,0,1-1.5,1.1-2.4h2.3c0,3.2-1.2,4.2-3.4,4.2C160,100.7,160,97.7,160,94.5z"/>
					<path d="M183.2,94.5c0-3.2,0-6.2,3.8-6.2s3.8,3,3.8,6.2c0,3.1,0,6.2-3.8,6.2S183.2,97.7,183.2,94.5z M188.5,94.5
						c0-3.1-0.2-4.4-1.5-4.4s-1.5,1.3-1.5,4.4s0.2,4.4,1.5,4.4C188.4,98.9,188.5,97.6,188.5,94.5z"/>
					<path d="M207.4,100.5V88.6h3.1l3,8.3l0,0v-8.3h2.2v11.9h-3.1l-3-8.7l0,0v8.7H207.4z"/>
					<path d="M235.4,100.7c-2.9,0-3.4-1.8-3.3-3.9h2.3c0,1.1,0,2.1,1.3,2.1c0.8,0,1.2-0.5,1.2-1.4c0-2.1-4.7-2.3-4.7-5.8
						c0-1.9,0.8-3.4,3.7-3.4c2.3,0,3.4,1.1,3.2,3.6h-2.3c0-0.9-0.1-1.8-1.1-1.8c-0.8,0-1.2,0.4-1.2,1.3c0,2.3,4.7,2.1,4.7,5.8
						C239.3,100.3,237.2,100.7,235.4,100.7z"/>
					<path d="M255.6,100.5V88.6h2.3v11.9H255.6z"/>
					<path d="M274.6,100.5V88.6h3.1l3,8.3l0,0v-8.3h2.2v11.9h-3.1l-3-8.7l0,0v8.7H274.6z"/>
				</g>
			</g>
		</g>
		<g>
			<g>
				<g>
					<defs>
						<polygon id="SVGID_1_" points="41,35.3 41,88.6 36.4,92.3 31.7,88.8 31.6,35.3 11.7,35.3 12.2,75.9 36.2,93.1 60.3,76 
							60.3,35.3 						"/>
					</defs>
					<clipPath id="SVGID_2_">
						<use xlink:href="#SVGID_1_"  style="overflow:visible;"/>
					</clipPath>
					<g class="st0">
						<polygon class="st1" points="12,75.6 36.4,92.6 60.4,75.3 60.4,35.3 12,35.3 						"/>
					</g>
				</g>
			</g>
			<g class="st2">
				<polyline points="50.7,35.3 48,35.3 41.4,57.9 41.4,60.9 50.7,35.3 				"/>
				<polyline points="60.5,43.7 41.4,67.8 41.4,68.6 60.5,47.4 60.5,43.7 				"/>
				<polyline points="13.6,35.3 12.1,35.3 12.2,38.4 31.8,66.9 31.8,65.8 13.6,35.3 				"/>
				<polyline points="12.5,50.2 12.6,53.2 31.8,69.9 31.8,69.3 12.5,50.2 				"/>
				<polyline points="12.3,43 12.4,46.9 31.8,68.6 31.8,67.8 12.3,43 				"/>
				<polyline points="60.5,35.3 59.8,35.3 41.4,65.9 41.4,66.9 60.5,39.3 60.5,35.3 				"/>
				<polyline points="30.4,35.3 27.9,35.3 31.8,52.7 31.7,43.8 30.4,35.3 				"/>
				<polyline points="19.8,35.3 16.8,35.3 31.8,64.5 31.8,62.9 19.8,35.3 				"/>
				<polyline points="25.3,35.3 22.6,35.3 31.8,60.7 31.8,57.6 25.3,35.3 				"/>
				<polyline points="12.7,55.8 12.7,58.2 31.8,70.9 31.8,70.4 12.7,55.8 				"/>
				<polyline points="60.5,67.5 41.5,72.6 41.4,72.4 41.4,72.4 41.4,72.9 60.5,69.1 60.5,67.5 				"/>
				<polyline points="60.5,70.7 41.6,73.2 41.6,73.1 41.4,73.1 41.4,73.5 60.5,72.2 60.5,70.7 				"/>
				<polyline points="12.9,64.1 12.9,65.8 31.7,72.3 31.6,72.5 13,67.5 13,69.1 31.8,72.9 31.8,72 12.9,64.1 				"/>
				<polyline points="12.8,60.3 12.8,62.3 31.8,71.6 31.8,71.3 12.8,60.3 				"/>
				<polyline points="60.5,50.6 41.4,69.3 41.4,69.8 60.5,53.4 60.5,50.6 				"/>
				<polyline points="60.5,60.4 41.4,71.3 41.4,71.7 60.5,62.3 60.5,60.4 				"/>
				<polyline points="60.5,64.2 41.4,72 41.4,72.3 60.5,65.9 60.5,64.2 				"/>
				<polyline points="60.5,55.9 41.4,70.4 41.4,70.9 60.5,58.3 60.5,55.9 				"/>
				<polyline points="56.6,35.3 53.6,35.3 41.4,63 41.4,64.6 56.6,35.3 				"/>
				<polyline points="45.4,35.3 42.9,35.3 41.4,44.8 41.4,53.2 45.4,35.3 				"/>
			</g>
			<path class="st1" d="M25.3,77c-2.5,0.3-4.9,1.3-7.3,2.6L31.7,89l0.1-12C29.8,76.7,27.7,76.7,25.3,77z"/>
			<path d="M31.7,77v-9.6c-2.5-0.5-5.3-0.7-8.7-0.3c-3.6,0.4-7.2,1.8-10.7,3.7L12,76.2l5.8,3.5c2.4-1.3,4.9-2.3,7.3-2.6
				C27.7,76.7,29.8,76.7,31.7,77z"/>
			<path class="st1" d="M39.6,79.8l0.2,9.5l-3.6,2.9L52,81.7c-0.3,0-0.6,0.1-0.9,0.1C46.3,82.1,42.9,81.1,39.6,79.8z"/>
			<path d="M59.6,71c-1.7,0.7-3.5,1.2-5.4,1.4c-6.4,0.7-10.6-0.7-14.7-2.2l0.2,9.6c3.3,1.2,6.7,2.3,11.5,1.9l8.5-6L59.6,71L59.6,71z
				"/>
			<g>
				<path d="M38.5,21.1c0.4,0,0.8-0.1,1.2-0.2l0,0c1.1-0.5,1.8-1.5,1.8-2.8V0l0,0l-4.2,4.8v16.3C37.3,21.1,38.5,21.1,38.5,21.1z"/>
				<path d="M36.1,6.2l-2.7,3.1v11.8h2.8C36.3,17.1,36.1,10.5,36.1,6.2z"/>
				<polygon points="67.3,32.5 42.7,32.5 42.8,34.3 65.4,34.3 				"/>
				<path d="M37.3,29.5V91l-1,0.7l-0.2-0.1V30.3c0-0.7,0.3-1.4,0.7-1.9l0,0l-3,3.5c-0.2,0.4-0.4,0.9-0.4,1.4v56.4l-1.2-0.9V33.6
					c0-0.4,0.2-0.8,0.4-1.1l0,0l-1.5,2.4C31,35.1,31,35.4,31,35.7V88L12.7,75.3V35.2h-1.1v40.7l24.7,17.2l24.3-17.2V35.2h-1.1v40.1
					L41.3,88.1V25c0-1.1,0.4-2.1,1.1-2.9l0,0l-4.6,5.3C37.5,28.1,37.3,28.8,37.3,29.5z"/>
				<path d="M42.8,31.2h25.5l2.6-3H42.8C42.7,28.5,42.7,30.1,42.8,31.2z"/>
				<polygon points="62.6,35.4 62.6,77.3 36.2,96.3 9.5,77.3 9.5,35.4 6.7,35.4 6.7,78.8 36.2,99.7 65.4,78.8 65.4,35.4 				"/>
				<path d="M30.8,34l1.5-1.8c0-0.1,0.1-0.1,0.1-0.2c-0.3,0.3-0.7,0.5-1.1,0.5H1.6L0,34.3h29.9C30.2,34.3,30.5,34.2,30.8,34z"/>
				<path d="M46.1,22.2c-1.1,0-1.4,0.1-2.1,0.5c-0.3,0.1-0.5,0.4-0.7,0.6c-0.4,0.5-0.7,1.2-0.7,1.9V27c2.2,0,24.7,0,29.4,0l4.1-4.6
					C69.5,22.4,47,22.1,46.1,22.2z"/>
				<path d="M37.1,26.2l4-4.6c0.1-0.2,0.2-0.4,0.3-0.6c-0.8,0.7-1.8,1.2-2.9,1.2H10.4L6.3,27h28.5C35.6,27,36.4,26.7,37.1,26.2z"/>
				<path d="M33.5,30.8L36,28c0.1-0.1,0.1-0.2,0.2-0.3c-0.5,0.4-1.1,0.7-1.8,0.7H5.1l-2.5,2.9h29.5C32.6,31.2,33.1,31.1,33.5,30.8z"
					/>
				<polygon points="32.3,10.4 30.8,12.1 30.8,21.1 32.3,21.1 				"/>
			</g>
		</g>
	</g>
</g>
</svg>
